<?xml version="1.0" encoding="UTF-8"?>
<svg xmlns="http://www.w3.org/2000/svg" viewBox="0 0 1920 392.19">
  <defs>
    <style>
      .sistenge-text { fill: #1c1c1c; }
      .sistenge-mark { fill: #cf2927; }
    </style>
  </defs>
  <g>
    <path class="sistenge-mark" d="M95.63,310.36h276.21c23.7,0,47.95-19.22,54.16-42.9,6.21-23.69-7.97-42.9-31.68-42.9H118.11l-22.48,85.81Z"/>
    <path class="sistenge-mark" d="M555.81,81.83h-276.21c-23.7,0-47.95,19.22-54.16,42.9-6.21,23.7,7.97,42.91,31.68,42.91h276.21l22.48-85.82Z"/>
    <path class="sistenge-text" d="M643.58,210.53c-33.51,0-39.7-14.53-31.66-44.61,7.73-28.87,20.96-43.61,55.29-43.61h94.26l-8.87,33.11h-86.19c-9.09,0-13.31,3.64-15.84,13.12-2.49,9.3-.23,12.93,8.86,12.93h47.64c33.52,0,39.67,13.92,31.67,43.8-7.95,29.67-21.64,44.61-55.35,44.61h-97.92l8.81-32.9h90.04c8.89,0,13.34-3.84,15.94-13.53,2.71-10.08-.38-12.91-8.84-12.91h-47.85.01Z"/>
    <polygon class="sistenge-text" points="829.48 122.32 789.96 269.87 750.4 269.87 789.92 122.32 829.48 122.32"/>
    <path class="sistenge-text" d="M873.32,210.53c-33.51,0-39.7-14.53-31.66-44.61,7.73-28.87,20.96-43.61,55.29-43.61h94.26l-8.87,33.11h-86.19c-9.1,0-13.31,3.64-15.84,13.12-2.49,9.3-.23,12.93,8.86,12.93h47.65c33.52,0,39.67,13.92,31.67,43.8-7.95,29.67-21.64,44.61-55.35,44.61h-97.92l8.81-32.9h90.05c8.88,0,13.33-3.84,15.93-13.53,2.71-10.08-.38-12.91-8.84-12.91h-47.85Z"/>
    <polygon class="sistenge-text" points="1054.6 154.22 1002.31 154.22 1010.85 122.32 1154.99 122.32 1146.46 154.22 1094.17 154.22 1063.19 269.87 1023.61 269.87 1054.6 154.22"/>
    <polygon class="sistenge-text" points="1287.32 210.33 1191.01 210.33 1183.61 237.98 1280.72 237.98 1272.17 269.88 1135.5 269.88 1175.04 122.32 1311.3 122.32 1302.75 154.22 1206.05 154.22 1198.65 181.87 1294.95 181.87 1287.32 210.33"/>
    <polygon class="sistenge-text" points="1430.47 226.89 1458.48 122.32 1495.01 122.32 1455.49 269.87 1407.45 269.87 1362.6 168.96 1335.57 269.87 1298.82 269.87 1338.36 122.32 1385.2 122.32 1430.47 226.89"/>
    <path class="sistenge-text" d="M1620.49,269.88h-75.7c-43.61,0-62.05-12.51-45.67-73.66,16.39-61.17,41.61-73.89,85.21-73.89h75.3l-8.7,32.51h-75.1c-19.79,0-28.81,8.07-37.73,41.38-8.92,33.3-4.17,41.18,15.62,41.18h40.78l11.84-44.21h34.72l-20.54,76.7h-.02Z"/>
    <polygon class="sistenge-text" points="1800.39 210.33 1704.09 210.33 1696.68 237.98 1793.79 237.98 1785.24 269.88 1648.57 269.88 1688.11 122.32 1824.37 122.32 1815.83 154.22 1719.13 154.22 1711.72 181.87 1808.02 181.87 1800.39 210.33"/>
  </g>
</svg>
